<?xml version="1.0" encoding="UTF-8"?>
<svg width="88px" height="88px" viewBox="0 0 88 88" version="1.1" xmlns="http://www.w3.org/2000/svg">
    <title>Apple Music</title>
    <g stroke="none" stroke-width="1" fill="none" fill-rule="evenodd">
        <path d="M44,0 C19.699,0 0,19.699 0,44 C0,68.301 19.699,88 44,88 C68.301,88 88,68.301 88,44 C88,19.699 68.301,0 44,0 Z M60.876,61.835 C60.193,63.164 59.279,64.334 58.155,65.293 C57.334,65.991 56.633,66.476 56.058,66.744 C55.147,67.189 54.193,67.422 53.205,67.422 C51.864,67.422 50.756,67.075 49.892,66.379 C49.027,65.682 48.408,64.771 48.037,63.64 C47.666,62.51 47.48,61.223 47.48,59.782 L47.48,31.69 C47.48,30.474 47.604,29.456 47.852,28.635 C48.1,27.814 48.521,27.104 49.115,26.503 C49.709,25.903 50.384,25.449 51.143,25.139 C51.901,24.83 52.722,24.675 53.606,24.675 C54.552,24.675 55.404,24.861 56.162,25.232 C56.92,25.604 57.583,26.131 58.155,26.813 C58.725,27.495 59.155,28.285 59.445,29.188 C59.734,30.092 59.879,31.071 59.879,32.129 L59.879,59.782 C59.879,60.75 59.734,61.657 59.445,62.499 C59.155,63.34 58.725,64.13 58.155,64.874 L60.876,61.835 Z M35.876,61.835 C35.193,63.164 34.279,64.334 33.155,65.293 C32.334,65.991 31.633,66.476 31.058,66.744 C30.147,67.189 29.193,67.422 28.205,67.422 C26.864,67.422 25.756,67.075 24.892,66.379 C24.027,65.682 23.408,64.771 23.037,63.64 C22.666,62.51 22.48,61.223 22.48,59.782 L22.48,31.69 C22.48,30.474 22.604,29.456 22.852,28.635 C23.1,27.814 23.521,27.104 24.115,26.503 C24.709,25.903 25.384,25.449 26.143,25.139 C26.901,24.83 27.722,24.675 28.606,24.675 C29.552,24.675 30.404,24.861 31.162,25.232 C31.92,25.604 32.583,26.131 33.155,26.813 C33.725,27.495 34.155,28.285 34.445,29.188 C34.734,30.092 34.879,31.071 34.879,32.129 L34.879,59.782 C34.879,60.75 34.734,61.657 34.445,62.499 C34.155,63.34 33.725,64.13 33.155,64.874 L35.876,61.835 Z" fill="currentColor"></path>
    </g>
</svg>
