<?xml version="1.0" encoding="UTF-8"?>
<svg width="104px" height="104px" viewBox="0 0 104 104" version="1.1" xmlns="http://www.w3.org/2000/svg">
    <title>SoundCloud</title>
    <g stroke="none" stroke-width="1" fill="none" fill-rule="evenodd">
        <path d="M52,0 C23.281,0 0,23.281 0,52 C0,80.719 23.281,104 52,104 C80.719,104 104,80.719 104,52 C104,23.281 80.719,0 52,0 Z M17.371,64.443 L19.371,70.443 L19.371,58.443 L17.371,64.443 Z M13.371,66.443 L15.371,70.443 L15.371,62.443 L13.371,66.443 Z M9.371,66.443 L11.371,70.443 L11.371,62.443 L9.371,66.443 Z M5.371,68.443 L7.371,70.443 L7.371,66.443 L5.371,68.443 Z M21.371,58.443 L23.371,74.443 L23.371,54.443 L21.371,58.443 Z M25.371,54.443 L27.371,74.443 L27.371,54.443 L25.371,54.443 Z M29.371,54.443 L31.371,74.443 L31.371,54.443 L29.371,54.443 Z M33.371,54.443 L35.371,74.443 L35.371,54.443 L33.371,54.443 Z M37.371,54.443 L39.371,74.443 L39.371,54.443 L37.371,54.443 Z M41.371,54.443 L43.371,74.443 L43.371,54.443 L41.371,54.443 Z M45.371,54.443 L47.371,74.443 L47.371,54.443 L45.371,54.443 Z M49.371,54.443 L51.371,74.443 L51.371,54.443 L49.371,54.443 Z M53.371,54.443 L55.371,74.443 L55.371,54.443 L53.371,54.443 Z M89.371,74.443 C89.371,66.443 82.371,60.443 74.371,60.443 C72.371,60.443 70.371,60.843 68.371,61.443 C67.371,49.443 57.371,40.443 45.371,40.443 C42.371,40.443 39.371,41.043 36.371,42.043 C35.371,42.443 35.371,42.443 35.371,43.443 L35.371,74.443 L89.371,74.443 Z" fill="currentColor"></path>
    </g>
</svg>
