<?xml version="1.0" encoding="UTF-8"?>
<svg width="167px" height="167px" viewBox="0 0 167 167" version="1.1" xmlns="http://www.w3.org/2000/svg">
    <title>Spotify</title>
    <g stroke="none" stroke-width="1" fill="none" fill-rule="evenodd">
        <path d="M83.5,0 C37.4,0 0,37.4 0,83.5 C0,129.6 37.4,167 83.5,167 C129.6,167 167,129.6 167,83.5 C167,37.4 129.6,0 83.5,0 Z M121.8,120.6 C120.4,122.8 117.5,123.4 115.3,122 C95.6,109.8 70.9,107.2 41.6,113.8 C39.1,114.4 36.7,112.7 36.1,110.2 C35.5,107.7 37.2,105.3 39.7,104.7 C71.5,97.5 98.6,100.5 120.4,114.1 C122.6,115.5 123.2,118.4 121.8,120.6 Z M132,98.2 C130.2,101 126.6,101.8 123.8,100 C101.4,86 67.9,82.1 40.7,90.1 C37.5,91 34.2,89.1 33.2,85.9 C32.3,82.7 34.2,79.4 37.4,78.4 C68.7,69.3 105.7,73.7 131.7,89.9 C134.5,91.7 135.3,95.3 132,98.2 Z M132.7,74.8 C105.9,58.5 61.5,57 35.8,64.8 C31.9,66 27.9,63.7 26.7,59.8 C25.5,55.9 27.8,51.9 31.7,50.7 C61.2,41.7 110.1,43.5 140.8,62.2 C144.3,64.3 145.2,68.7 143.1,72.1 C141,75.6 136.7,76.5 132.7,74.8 Z" fill="currentColor"></path>
    </g>
</svg>
